<svg xmlns="http://www.w3.org/2000/svg" xml:space="preserve" width="800" height="800" fill="#000" version="1.1" viewBox="0 0 369.955 369.955"><g><path d="M184.978.003C82.821.003 0 82.821 0 184.981c0 102.147 82.821 184.971 184.978 184.971 102.16 0 184.978-82.824 184.978-184.971C369.955 82.815 287.144.003 184.978.003zm19.876 150.18-25.469 39.427 25.469 39.422h49.738l-9.47-9.47c-5.206-5.212-5.206-13.643 0-18.854 5.218-5.207 13.661-5.207 18.861 0l29.675 29.693a13.327 13.327 0 0 1 6.186 6.179l6.881 6.894-40.532 40.532a13.269 13.269 0 0 1-9.427 3.909 13.324 13.324 0 0 1-9.428-3.909c-5.2-5.212-5.2-13.643 0-18.849l9.463-9.458h-59.207c-1.045 0-2.041-.144-3.014-.372-.265-.061-.505-.156-.757-.24a11.88 11.88 0 0 1-2.078-.793c-.288-.138-.564-.3-.853-.468a12.525 12.525 0 0 1-1.786-1.261c-.229-.181-.457-.349-.661-.553a13.293 13.293 0 0 1-1.99-2.354c-.024-.023-.036-.042-.062-.065l-22.879-35.423-22.881 35.423c-.012.023-.036.042-.06.065a13.206 13.206 0 0 1-1.981 2.354c-.213.204-.441.372-.669.559-.564.462-1.144.889-1.777 1.255-.276.168-.564.33-.868.468-.652.33-1.345.583-2.066.793-.246.072-.499.18-.756.24-.97.216-1.967.372-3.012.372h-.018l-65.149-.012c-7.359 0-13.331-5.969-13.331-13.331 0-7.355 5.972-13.33 13.331-13.33l57.91.012 25.463-39.422-25.463-39.427-57.91-.006c-7.359 0-13.331-5.969-13.331-13.331 0-7.359 5.972-13.331 13.331-13.331l65.167.006c.018 0 .042.012.072.012.745 0 1.477.099 2.198.216.147.024.312.024.454.048.669.15 1.33.382 1.981.622.153.062.336.099.495.168.562.231 1.09.553 1.618.88.21.12.444.213.64.342.315.216.598.499.898.739.375.306.762.594 1.108.928.177.177.324.405.504.61.405.468.816.945 1.162 1.462.024.033.048.057.06.081l22.881 35.422 22.879-35.422a.296.296 0 0 0 .068-.081c.34-.499.727-.952 1.126-1.408.184-.219.352-.465.553-.676.258-.258.573-.468.855-.705 1.039-.901 2.174-1.664 3.417-2.18.029-.019.065-.019.102-.036a14.211 14.211 0 0 1 2.378-.739c.12-.024.246-.012.36-.042a14.354 14.354 0 0 1 2.288-.222c.018 0 .042-.012.078-.012h58.103l-10.587-10.581c-5.206-5.209-5.206-13.646 0-18.846 5.218-5.209 13.661-5.209 18.861 0l42.742 42.757-9.403 9.422-.024.018-31.106 31.096a13.271 13.271 0 0 1-9.428 3.909 13.325 13.325 0 0 1-9.428-3.909c-5.2-5.209-5.2-13.646 0-18.846l8.358-8.353h-50.854v-.018z"/></g></svg>